



[IMG]http://img153.imageshack.us/img153/4230/kingarthercasecopy.jpg[/IMG]

[IMG]http://img687.imageshack.us/img687/8167/kingarthertitle.png[/IMG]


[IMG]http://myph.us/pics/64623_8we5inyn.png[/IMG]

General
Complete name                    : King.Arthur 2004 HDrip{Dual audio}[Eng Hindi]Current_HD
Format                           : Matroska
File size                        : 719 MiB
Duration                         : 2h 16mn
Overall bit rate                 : 737 Kbps
Encoded date                     : UTC 2010-07-09 00:09:29
Writing application              : mkvmerge v3.2.0 ('Beginnings') built on Feb 12 2010 16:46:17
Writing library                  : libebml v0.7.9 + libmatroska v0.8.1



[IMG]http://img518.imageshack.us/img518/241/windowsmediaplayerfile.png[/IMG]
Video
ID                               : 2
Format                           : AVC
Format/Info                      : Advanced Video Codec
Format profile                   : High@L2.2
Format settings, CABAC           : Yes
Format settings, ReFrames        : 8 frames
Muxing mode                      : Container profile=Unknown@2.2
Codec ID                         : V_MPEG4/ISO/AVC
Duration                         : 2h 16mn
Bit rate                         : 489 Kbps
Width                            : 644 pixels
Height                           : 272 pixels
Display aspect ratio             : 2.35:1
Frame rate                       : 23.488 fps
Original frame rate              : 23.976 fps
Color space                      : YUV
Chroma subsampling               : 4:2:0
Bit depth                        : 8 bits
Scan type                        : Progressive
Bits/(Pixel*Frame)               : 0.119
Stream size                      : 455 MiB (63%)
Writing library                  : x264 core 65 r998M 6768543
Encoding settings                : cabac=1 / ref=8 / deblock=1:-2:-1 / analyse=0x3:0x133 / me=umh / subme=6 / psy_rd=1.0:0.0 / mixed_ref=1 / me_range=16 / chroma_me=1 / trellis=1 / 8x8dct=1 / cqm=0 / deadzone=21,11 / chroma_qp_offset=-2 / threads=3 / nr=0 / decimate=1 / mbaff=0 / bframes=16 / b_pyramid=1 / b_adapt=1 / b_bias=0 / direct=3 / wpredb=1 / keyint=250 / keyint_min=25 / scenecut=40(pre) / rc=2pass / bitrate=489 / ratetol=1.0 / qcomp=0.60 / qpmin=10 / qpmax=51 / qpstep=4 / cplxblur=20.0 / qblur=0.5 / ip_ratio=1.40 / pb_ratio=1.30 / aq=1:1.00

[IMG]http://img33.imageshack.us/img33/9892/musicfile.png[/IMG]
Audio #1
ID                               : 1
Format                           : MPEG Audio
Format version                   : Version 1
Format profile                   : Layer 3
Codec ID                         : A_MPEG/L3
Codec ID/Hint                    : MP3
Duration                         : 2h 16mn
Bit rate mode                    : Constant
Bit rate                         : 128 Kbps
Channel(s)                       : 2 channels
Sampling rate                    : 44.1 KHz
Stream size                      : 125 MiB (17%)
Title                            : CurrentHD (English)
Writing library                  : LAME3.96.1

[IMG]http://img33.imageshack.us/img33/9892/musicfile.png[/IMG]
Audio #2
ID                               : 3
Format                           : MPEG Audio
Format version                   : Version 1
Format profile                   : Layer 3
Mode                             : Joint stereo
Mode extension                   : MS Stereo
Codec ID                         : A_MPEG/L3
Codec ID/Hint                    : MP3
Duration                         : 2h 16mn
Bit rate mode                    : Constant
Bit rate                         : 128 Kbps
Channel(s)                       : 2 channels
Sampling rate                    : 44.1 KHz
Stream size                      : 125 MiB (17%)
Title                            : CurrentHD (Hindi)
Writing library                  : LAME3.96.1

[IMG]http://img80.imageshack.us/img80/3764/69775700.png[/IMG]
[IMG]http://img38.imageshack.us/img38/9922/71162280.png[/IMG]
[IMG]http://static.img4tw.com/i/994928db.jpg[/IMG]
[IMG]http://img21.imageshack.us/img21/574/38250187.png[/IMG]
[IMG]http://img28.imageshack.us/img28/282/44162743.png[/IMG]